# xmcd CD database file
#
# Track frame offsets:
#	150
#	15569
#	23904
#	36643
#	50181
#	64060
#	76276
#	86349
#	97116
#	110024
#	125948
#	138051
#
# Disc length: 2030 seconds
#
# Revision: 1
# Processed by: cddbd v1.5.2PL0 Copyright (c) Steve Scherf et al.
# Submitted via: CDex 1.97
#
DISCID=a707ec0c
DTITLE=Country Road - Rhinestone Cowboy
DYEAR=1974
DGENRE=Country
TTITLE0=Country Road - Catfish John
TTITLE1=Country Road - The Love I Could Not Find At Home
TTITLE2=Country Road - Morning
TTITLE3=Country Road - I'm Tickled Pink
TTITLE4=Country Road - How I Love Them Old Songs
TTITLE5=Country Road - Ruby Dont Take Your Love To Town
TTITLE6=Country Road - Rhinestone Cowboy
TTITLE7=Country Road  - The Key's In The Mailbox
TTITLE8=Country Road - Leaning On Your Love
TTITLE9=Country Road -  Shenandoah
TTITLE10=Country Road - A Good Love Is Like A Good Song
TTITLE11=Country Road - Never Been To Spain
EXTD=YEAR: 1974
EXTT0=
EXTT1=
EXTT2=
EXTT3=
EXTT4=
EXTT5=
EXTT6=
EXTT7=
EXTT8=
EXTT9=
EXTT10=
EXTT11=
PLAYORDER=
